<svg width="144" height="50" viewBox="0 0 144 50" fill="none" xmlns="http://www.w3.org/2000/svg">
<g filter="url(#filter0_d_24_2)">
<path d="M11.5398 41.4602C10.2955 41.4602 9.16619 41.2259 8.15199 40.7571C7.13778 40.2798 6.33239 39.5938 5.7358 38.6989C5.1392 37.7955 4.84091 36.7045 4.84091 35.4261C4.84091 34.3011 5.0625 33.3892 5.50568 32.6903C5.94886 31.983 6.54119 31.429 7.28267 31.0284C8.02415 30.6278 8.84233 30.3295 9.73722 30.1335C10.6406 29.929 11.5483 29.767 12.4602 29.6477C13.6534 29.4943 14.6207 29.3793 15.3622 29.3026C16.1122 29.2173 16.6577 29.0767 16.9986 28.8807C17.348 28.6847 17.5227 28.3437 17.5227 27.858V27.7557C17.5227 26.4943 17.1776 25.5142 16.4872 24.8153C15.8054 24.1165 14.7699 23.767 13.3807 23.767C11.9403 23.767 10.8111 24.0824 9.9929 24.7131C9.17472 25.3437 8.59943 26.017 8.26705 26.733L5.40341 25.7102C5.91477 24.517 6.59659 23.5881 7.44886 22.9233C8.30966 22.25 9.24716 21.7812 10.2614 21.517C11.2841 21.2443 12.2898 21.108 13.2784 21.108C13.9091 21.108 14.6335 21.1847 15.4517 21.3381C16.2784 21.483 17.0753 21.7855 17.8423 22.2457C18.6179 22.706 19.2614 23.4006 19.7727 24.3295C20.2841 25.2585 20.5398 26.5028 20.5398 28.0625V41H17.5227V38.3409H17.3693C17.1648 38.767 16.8239 39.223 16.3466 39.7088C15.8693 40.1946 15.2344 40.608 14.4418 40.9489C13.6491 41.2898 12.6818 41.4602 11.5398 41.4602ZM12 38.75C13.1932 38.75 14.1989 38.5156 15.017 38.0469C15.8438 37.5781 16.4659 36.973 16.8835 36.2315C17.3097 35.4901 17.5227 34.7102 17.5227 33.892V31.1307C17.3949 31.2841 17.1136 31.4247 16.679 31.5526C16.2528 31.6719 15.7585 31.7784 15.196 31.8722C14.642 31.9574 14.1009 32.0341 13.5724 32.1023C13.0526 32.1619 12.6307 32.2131 12.3068 32.2557C11.5227 32.358 10.7898 32.5241 10.108 32.7543C9.43466 32.9759 8.8892 33.3125 8.47159 33.7642C8.0625 34.2074 7.85795 34.8125 7.85795 35.5795C7.85795 36.6278 8.24574 37.4205 9.02131 37.9574C9.8054 38.4858 10.7983 38.75 12 38.75ZM38.4215 32.9716V21.3636H41.4386V41H38.4215V37.6761H38.217C37.7567 38.6733 37.0408 39.5213 36.0692 40.2202C35.0977 40.9105 33.8704 41.2557 32.3874 41.2557C31.1602 41.2557 30.0692 40.9872 29.1147 40.4503C28.1602 39.9048 27.4102 39.0866 26.8647 37.9957C26.3192 36.8963 26.0465 35.5114 26.0465 33.8409V21.3636H29.0636V33.6364C29.0636 35.0682 29.4641 36.2102 30.2653 37.0625C31.0749 37.9148 32.1062 38.3409 33.359 38.3409C34.109 38.3409 34.8718 38.1491 35.6474 37.7656C36.4315 37.3821 37.0877 36.794 37.6161 36.0014C38.1531 35.2088 38.4215 34.1989 38.4215 32.9716ZM67.2145 41V21.3636H70.2315V41H67.2145ZM68.7486 18.0909C68.1605 18.0909 67.6534 17.8906 67.2273 17.4901C66.8097 17.0895 66.6009 16.608 66.6009 16.0455C66.6009 15.483 66.8097 15.0014 67.2273 14.6009C67.6534 14.2003 68.1605 14 68.7486 14C69.3366 14 69.8395 14.2003 70.2571 14.6009C70.6832 15.0014 70.8963 15.483 70.8963 16.0455C70.8963 16.608 70.6832 17.0895 70.2571 17.4901C69.8395 17.8906 69.3366 18.0909 68.7486 18.0909ZM78.7745 14.8182V41H75.7575V14.8182H78.7745ZM84.3004 41V21.3636H87.3175V41H84.3004ZM85.8345 18.0909C85.2464 18.0909 84.7393 17.8906 84.3132 17.4901C83.8956 17.0895 83.6868 16.608 83.6868 16.0455C83.6868 15.483 83.8956 15.0014 84.3132 14.6009C84.7393 14.2003 85.2464 14 85.8345 14C86.4226 14 86.9254 14.2003 87.343 14.6009C87.7692 15.0014 87.9822 15.483 87.9822 16.0455C87.9822 16.608 87.7692 17.0895 87.343 17.4901C86.9254 17.8906 86.4226 18.0909 85.8345 18.0909ZM105.218 32.9716V21.3636H108.235V41H105.218V37.6761H105.014C104.554 38.6733 103.838 39.5213 102.866 40.2202C101.895 40.9105 100.667 41.2557 99.1843 41.2557C97.957 41.2557 96.8661 40.9872 95.9116 40.4503C94.957 39.9048 94.207 39.0866 93.6616 37.9957C93.1161 36.8963 92.8434 35.5114 92.8434 33.8409V21.3636H95.8604V33.6364C95.8604 35.0682 96.261 36.2102 97.0621 37.0625C97.8718 37.9148 98.9031 38.3409 100.156 38.3409C100.906 38.3409 101.669 38.1491 102.444 37.7656C103.228 37.3821 103.885 36.794 104.413 36.0014C104.95 35.2088 105.218 34.1989 105.218 32.9716ZM113.761 41V21.3636H116.676V24.4318H116.932C117.341 23.3835 118.001 22.5696 118.913 21.9901C119.825 21.402 120.92 21.108 122.199 21.108C123.494 21.108 124.572 21.402 125.433 21.9901C126.303 22.5696 126.98 23.3835 127.466 24.4318H127.67C128.173 23.4176 128.928 22.6122 129.933 22.0156C130.939 21.4105 132.145 21.108 133.551 21.108C135.307 21.108 136.743 21.6577 137.859 22.7571C138.976 23.848 139.534 25.5483 139.534 27.858V41H136.517V27.858C136.517 26.4091 136.121 25.3736 135.328 24.7514C134.536 24.1293 133.602 23.8182 132.528 23.8182C131.148 23.8182 130.078 24.2358 129.32 25.071C128.561 25.8977 128.182 26.946 128.182 28.2159V41H125.114V27.5511C125.114 26.4347 124.751 25.5355 124.027 24.8537C123.303 24.1634 122.369 23.8182 121.227 23.8182C120.443 23.8182 119.71 24.027 119.028 24.4446C118.355 24.8622 117.81 25.4418 117.392 26.1832C116.983 26.9162 116.778 27.7642 116.778 28.7273V41H113.761Z" fill="#DDE1E4"/>
<path d="M49.568 38.68L47.16 36.888L50.632 31.008L44.584 28.488L45.536 25.632L51.92 27.256L52.48 20.424H55.56L56.12 27.2L62.504 25.632L63.4 28.488L57.352 31.008L60.936 36.888L58.472 38.68L54.048 33.304L49.568 38.68Z" fill="#0679FF"/>
</g>
<defs>
<filter id="filter0_d_24_2" x="0.84082" y="14" width="142.693" height="35.4602" filterUnits="userSpaceOnUse" color-interpolation-filters="sRGB">
<feFlood flood-opacity="0" result="BackgroundImageFix"/>
<feColorMatrix in="SourceAlpha" type="matrix" values="0 0 0 0 0 0 0 0 0 0 0 0 0 0 0 0 0 0 127 0" result="hardAlpha"/>
<feOffset dy="4"/>
<feGaussianBlur stdDeviation="2"/>
<feComposite in2="hardAlpha" operator="out"/>
<feColorMatrix type="matrix" values="0 0 0 0 0 0 0 0 0 0 0 0 0 0 0 0 0 0 0.25 0"/>
<feBlend mode="normal" in2="BackgroundImageFix" result="effect1_dropShadow_24_2"/>
<feBlend mode="normal" in="SourceGraphic" in2="effect1_dropShadow_24_2" result="shape"/>
</filter>
</defs>
</svg>
